<svg id="Layer_1" data-name="Layer 1" xmlns="http://www.w3.org/2000/svg" viewBox="0 0 3240 1080"><defs><style>.cls-1{fill:#fff;}</style></defs><rect width="3240" height="1080"/><path class="cls-1" d="M852.26,682.37q-5-12-10-24.25t-10-24.5H610l-19.75,47.75q-3.5,7.75-9.75,7.75-8.49,0-13.5-2.37t-5-5.63a9.48,9.48,0,0,1,1-4.25l146-349q1-2.25,2.5-5.25t3.13-5.62a24.41,24.41,0,0,1,3.37-4.38,4.91,4.91,0,0,1,3.25-1.75q5,0,7.5,5.5l150.5,361a5.67,5.67,0,0,1,.75,2.25,15.4,15.4,0,0,1,.25,2.5c0,1.84-1.91,3.46-5.75,4.88a37.2,37.2,0,0,1-13,2.12Q855,689.12,852.26,682.37Zm-231-76.25h199.5l-91-219.5q-2-5-4.12-10.12t-4.38-10.13a.44.44,0,0,0-.5.5Z"/><path class="cls-1" d="M1209.76,458.12a141.84,141.84,0,0,1-4.25,34.5,137.3,137.3,0,0,1-12.5,32.25,142.2,142.2,0,0,1-20.25,28.38,126.82,126.82,0,0,1-27.5,22.62l48,101.5a8.4,8.4,0,0,1,.5,2,15.4,15.4,0,0,1,.25,2.5,7.6,7.6,0,0,1-1.87,5,6.62,6.62,0,0,1-5.38,2.25H1172q-4.76,0-7.25-5.25l-45-95.25q-23.25,9.25-53,9.25h-102v81.75q0,9.51-9.75,9.5h-9.25q-9.5,0-9.5-9.5V328.12a10.17,10.17,0,0,1,2.63-7.12,9,9,0,0,1,6.12-3.13h121.75q33,0,59.5,11.75A139.3,139.3,0,0,1,1171.39,361a137.34,137.34,0,0,1,28.5,44.87A142.32,142.32,0,0,1,1209.76,458.12Zm-143,111.25q27.26,0,48.5-9.37a108.24,108.24,0,0,0,35.88-25,109.64,109.64,0,0,0,22.37-35.63,114,114,0,0,0,0-82.62,110.74,110.74,0,0,0-22.37-35.88,109,109,0,0,0-35.88-25.25q-21.26-9.5-48.5-9.5h-102V569.37Z"/><path class="cls-1" d="M1560.26,458.12a141.84,141.84,0,0,1-4.25,34.5,137.74,137.74,0,0,1-12.5,32.25,142.2,142.2,0,0,1-20.25,28.38,126.82,126.82,0,0,1-27.5,22.62l48,101.5a8.94,8.94,0,0,1,.5,2,16.62,16.62,0,0,1,.25,2.5,7.61,7.61,0,0,1-1.88,5,6.6,6.6,0,0,1-5.37,2.25h-14.75q-4.76,0-7.25-5.25l-45-95.25q-23.25,9.25-53,9.25h-102v81.75q0,9.51-9.75,9.5h-9.25q-9.51,0-9.5-9.5V328.12a10.17,10.17,0,0,1,2.62-7.12,9,9,0,0,1,6.13-3.13h121.75q33,0,59.5,11.75A139.37,139.37,0,0,1,1521.88,361a137,137,0,0,1,28.5,44.87A142.33,142.33,0,0,1,1560.26,458.12Zm-143,111.25q27.24,0,48.5-9.37a108.3,108.3,0,0,0,35.87-25A109.67,109.67,0,0,0,1524,499.37a114,114,0,0,0,0-82.62,110.77,110.77,0,0,0-22.38-35.88,109,109,0,0,0-35.87-25.25q-21.26-9.5-48.5-9.5h-102V569.37Z"/><path class="cls-1" d="M1912.25,326.87a9.24,9.24,0,0,1,2.25-6.62c1.5-1.58,3.75-2.38,6.75-2.38H1930a10.35,10.35,0,0,1,7,2.38,8.29,8.29,0,0,1,2.75,6.62V680.12q0,9-9.75,9h-8.75q-9,0-9-9V559.37h-247V680.12q0,9-9.5,9H1647q-9,0-9-9V326.87a9.24,9.24,0,0,1,2.25-6.62c1.5-1.58,3.75-2.38,6.75-2.38h9a9.42,9.42,0,0,1,6.75,2.38,8.68,8.68,0,0,1,2.5,6.62V531.62h247Z"/><path class="cls-1" d="M2271.5,317.87q9.49,0,9.5,9.25v8.75a9.39,9.39,0,0,1-2.38,6.75c-1.58,1.67-4,2.5-7.12,2.5H2048.75v186.5h180a10.19,10.19,0,0,1,6.87,2.25q2.63,2.25,2.63,7.25v9a9.13,9.13,0,0,1-2.5,6.75,9.46,9.46,0,0,1-7,2.5h-180v102.5H2275.5q9.49,0,9.5,9.25v9q0,9-9.25,9H2029q-4.26,0-6.13-2.37a10,10,0,0,1-1.87-6.38V326.87c0-3.83,1-6.29,2.87-7.37a12.78,12.78,0,0,1,6.38-1.63Z"/><path class="cls-1" d="M2373.24,370.87V680.12q0,9-9.25,9h-8.75q-9.24,0-9.25-9V317.87a15.39,15.39,0,0,1,1.13-5.62q1.13-2.88,5.37-2.88a8.61,8.61,0,0,1,6.25,2.75q67,81.75,133.38,162.63t133.37,162.62V326.87q0-9,9.25-9h9q9,0,9,9V691.12a15.21,15.21,0,0,1-1.5,5.13q-1.24,2.63-5.5,2.62a8.07,8.07,0,0,1-6.75-3.25Z"/></svg>