<svg id="Layer_1" data-name="Layer 1" xmlns="http://www.w3.org/2000/svg" viewBox="0 0 3240 1080"><path d="M1355.79,312.5h-48.1L1117.89,774h62.4l54-135.2h193.7l54.6,135.2h62.4ZM1245.94,593.3l85.8-213.2,83.2,213.2Z"/><path d="M1767.89,432.1h-11.05q-32.5,0-61.1,23.07t-46.15,58.18V434.7h-53.3V774h57.2V564.7q13.65-37.05,46.48-57.85t75.72-22.1v-52A40.69,40.69,0,0,0,1767.89,432.1Z"/><path d="M2003.19,432.1h-11q-32.51,0-61.1,23.07t-46.15,58.18V434.7h-53.3V774h57.2V564.7q13.65-37.05,46.47-57.85t75.73-22.1v-52A40.69,40.69,0,0,0,2003.19,432.1Z"/><path d="M2355.81,515q-5.52-26.34-17.87-45.18a88.62,88.62,0,0,0-33.15-29.9q-20.8-11-50.7-11a143.21,143.21,0,0,0-75.4,20.8q-34.46,20.81-54.6,57.85v-208h-57.2V774h57.2V569.25a124.21,124.21,0,0,1,17.22-35.75,133.64,133.64,0,0,1,26-27.95A125.6,125.6,0,0,1,2198.84,487a89.78,89.78,0,0,1,33.8-6.82q35.1,0,53.3,25.68t18.2,78.32V774h57.2V571.2A273.55,273.55,0,0,0,2355.81,515Z"/><path d="M2757.51,536.42a168.45,168.45,0,0,0-34.12-55.25q-22.11-23.71-53.63-38t-69.87-14.3q-38.37,0-70.2,14a169.69,169.69,0,0,0-54.93,38,171.58,171.58,0,0,0-35.75,55.9,181.16,181.16,0,0,0-12.67,67.6A183.55,183.55,0,0,0,2439,672.27a173,173,0,0,0,35.43,56.23,165.66,165.66,0,0,0,54.6,38q31.83,14,70.2,14A181.44,181.44,0,0,0,2648,774a174.11,174.11,0,0,0,42.57-17.88,152.7,152.7,0,0,0,33.8-27,124.86,124.86,0,0,0,23.08-34.45L2698,681.05a71.73,71.73,0,0,1-15.28,23.4A96.8,96.8,0,0,1,2659.69,722a133,133,0,0,1-28,11.38,111.74,111.74,0,0,1-30.55,4.22,105.71,105.71,0,0,1-41.93-8.45,117,117,0,0,1-35.42-23.4A118.61,118.61,0,0,1,2498.49,670a131.55,131.55,0,0,1-11.7-46.15h281.45a71.48,71.48,0,0,0,1-9.1q.33-5.85.33-13A181.81,181.81,0,0,0,2757.51,536.42Zm-272,45.18a127.94,127.94,0,0,1,11.37-44.2,115.32,115.32,0,0,1,24.7-34.78A110.48,110.48,0,0,1,2557,479.88a115.25,115.25,0,0,1,121.22,22.42,119.14,119.14,0,0,1,25.35,34.78,122.19,122.19,0,0,1,12,44.52Z"/><path d="M3121.51,514.65q-4.87-26-16.58-45.17a82.67,82.67,0,0,0-31.2-29.9q-19.5-10.74-48.75-10.73-44.85,0-82.87,21.45t-58.18,57.2V434.7h-52V774h57.2V569.25a119.57,119.57,0,0,1,17.55-35.75,128.68,128.68,0,0,1,27.3-27.95A139.49,139.49,0,0,1,2967.13,487a96.43,96.43,0,0,1,35.1-6.82q33.8,0,50.38,24.7t16.57,79.3V774h57.2V571.2A307.33,307.33,0,0,0,3121.51,514.65Z"/><path d="M130.93,754.23,214.62,612.4c47.77-80.95,164.9-80.88,212.58.12l83.48,141.82c48.42,82.25-10.88,186-106.32,186H237.18C141.69,940.3,82.39,836.47,130.93,754.23Z"/><path d="M996.6,754.25Q924.69,632.36,834.92,480.09,734.71,310.29,669.76,200.32C622,119.45,505,119.5,457.28,200.4l-57.07,96.75a123.37,123.37,0,0,0,0,125.42l270,457.11A123.39,123.39,0,0,0,776.48,940.3H890.33C985.83,940.3,1045.13,836.5,996.6,754.25ZM784.46,802.94,522.72,359.82l40.83-69.22q62,104.92,153.07,259.3,82.05,139.19,149.22,253Z"/></svg>