<svg id="Layer_1" data-name="Layer 1" xmlns="http://www.w3.org/2000/svg" viewBox="0 0 1080 1080"><path d="M103.33,756.13,187.77,613c48.19-81.66,166.35-81.6,214.46.12l84.22,143.08c48.84,83-11,187.61-107.26,187.61H210.53C114.18,943.85,54.36,839.1,103.33,756.13Z"/><path d="M976.68,756.15q-72.55-123-163.12-276.59-101.1-171.3-166.62-282.25c-48.19-81.59-166.23-81.54-214.37.08L375,295a124.47,124.47,0,0,0,0,126.54L647.43,882.69A124.48,124.48,0,0,0,754.6,943.85H869.47C965.81,943.85,1025.63,839.12,976.68,756.15Zm-214,49.12-264.07-447,41.19-69.83Q602.3,394.25,694.21,550,777,690.41,844.76,805.27Z"/></svg>