<svg id="Layer_1" data-name="Layer 1" xmlns="http://www.w3.org/2000/svg" viewBox="0 0 1080 1080"><defs><style>.cls-1{fill:#fff;}</style></defs><rect width="1080" height="1080"/><path class="cls-1" d="M711.93,779.13q-6.55-15.74-13.11-31.8t-13.11-32.12H394.29L368.4,777.82Q363.81,788,355.61,788q-11.14,0-17.7-3.12t-6.55-7.37a12.2,12.2,0,0,1,1.31-5.57L524.1,314.31c.87-2,2-4.26,3.28-6.88s2.67-5.08,4.1-7.38a31.67,31.67,0,0,1,4.42-5.73q2.29-2.29,4.26-2.3,6.55,0,9.84,7.21L747.33,772.57a7.56,7.56,0,0,1,1,2.95,20.52,20.52,0,0,1,.33,3.28q0,3.62-7.54,6.39a48.88,48.88,0,0,1-17,2.79Q715.53,788,711.93,779.13Zm-302.88-100H670.63L551.31,391.34q-2.62-6.55-5.41-13.27t-5.74-13.28a.58.58,0,0,0-.65.66Z"/></svg>