<svg id="Layer_1" data-name="Layer 1" xmlns="http://www.w3.org/2000/svg" viewBox="0 0 1080 1080"><defs><style>.cls-1{font-size:214.87px;font-family:Raleway-Medium, Raleway;font-weight:500;}</style></defs><path d="M268.17,537.78,320.54,449c29.89-50.65,103.17-50.61,133,.07l52.23,88.75c30.29,51.46-6.81,116.35-66.53,116.35H334.65C274.9,654.21,237.8,589.24,268.17,537.78Z"/><path d="M809.82,537.8q-45-76.27-101.17-171.55Q646,260,605.31,191.2c-29.88-50.6-103.09-50.57-132.95.05l-35.7,60.54a77.2,77.2,0,0,0,0,78.47l168.94,286a77.2,77.2,0,0,0,66.47,37.93h71.24C803.08,654.21,840.18,589.26,809.82,537.8ZM677.09,568.26,513.31,291l25.55-43.31q38.77,65.65,95.78,162.25Q686,497,728,568.26Z"/><text class="cls-1" transform="translate(199.97 878.38)">Arrhen</text></svg>